<mxfile host="Electron" modified="2024-08-07T21:47:24.729Z" agent="Mozilla/5.0 (Windows NT 10.0; Win64; x64) AppleWebKit/537.36 (KHTML, like Gecko) draw.io/24.2.5 Chrome/120.0.6099.109 Electron/28.1.0 Safari/537.36" etag="RaXLDF5mfAJCl5XJ4uBc" version="24.2.5" type="device">
  <diagram id="C5RBs43oDa-KdzZeNtuy" name="Page-1">
    <mxGraphModel dx="2790" dy="1407" grid="1" gridSize="10" guides="1" tooltips="1" connect="1" arrows="1" fold="1" page="1" pageScale="1" pageWidth="827" pageHeight="1169" math="0" shadow="0">
      <root>
        <mxCell id="WIyWlLk6GJQsqaUBKTNV-0" />
        <mxCell id="WIyWlLk6GJQsqaUBKTNV-1" parent="WIyWlLk6GJQsqaUBKTNV-0" />
        <mxCell id="Qz7dubxmuP8Mt73DrNYx-10" style="edgeStyle=orthogonalEdgeStyle;rounded=0;orthogonalLoop=1;jettySize=auto;html=1;shape=flexArrow;noEdgeStyle=1;orthogonal=1;fillColor=#e1d5e7;strokeColor=#9673a6;" edge="1" parent="WIyWlLk6GJQsqaUBKTNV-1" source="Qz7dubxmuP8Mt73DrNYx-0" target="C0KYWf5MFjcVJt7XxlhM-3">
          <mxGeometry relative="1" as="geometry">
            <Array as="points">
              <mxPoint x="2994.875" y="72" />
              <mxPoint x="1886.875" y="148" />
            </Array>
            <mxPoint x="1376" y="70" as="sourcePoint" />
            <mxPoint x="1081" y="170" as="targetPoint" />
          </mxGeometry>
        </mxCell>
        <mxCell id="C0KYWf5MFjcVJt7XxlhM-91" style="edgeStyle=orthogonalEdgeStyle;rounded=0;orthogonalLoop=1;jettySize=auto;html=1;shape=flexArrow;noEdgeStyle=1;orthogonal=1;fillColor=#e1d5e7;strokeColor=#9673a6;" parent="WIyWlLk6GJQsqaUBKTNV-1" source="C0KYWf5MFjcVJt7XxlhM-1" target="C0KYWf5MFjcVJt7XxlhM-3" edge="1">
          <mxGeometry relative="1" as="geometry">
            <Array as="points">
              <mxPoint x="873.3333333333334" y="72" />
              <mxPoint x="1773.125" y="148" />
            </Array>
          </mxGeometry>
        </mxCell>
        <mxCell id="C0KYWf5MFjcVJt7XxlhM-90" style="edgeStyle=orthogonalEdgeStyle;rounded=0;orthogonalLoop=1;jettySize=auto;html=1;shape=flexArrow;noEdgeStyle=1;orthogonal=1;fillColor=#e1d5e7;strokeColor=#9673a6;" parent="WIyWlLk6GJQsqaUBKTNV-1" source="C0KYWf5MFjcVJt7XxlhM-4" target="C0KYWf5MFjcVJt7XxlhM-3" edge="1">
          <mxGeometry relative="1" as="geometry">
            <Array as="points">
              <mxPoint x="1054.1666666666667" y="72" />
              <mxPoint x="1789.375" y="146" />
            </Array>
          </mxGeometry>
        </mxCell>
        <mxCell id="C0KYWf5MFjcVJt7XxlhM-88" style="edgeStyle=orthogonalEdgeStyle;rounded=0;orthogonalLoop=1;jettySize=auto;html=1;shape=flexArrow;noEdgeStyle=1;orthogonal=1;fillColor=#e1d5e7;strokeColor=#9673a6;" parent="WIyWlLk6GJQsqaUBKTNV-1" source="C0KYWf5MFjcVJt7XxlhM-5" target="C0KYWf5MFjcVJt7XxlhM-3" edge="1">
          <mxGeometry relative="1" as="geometry">
            <Array as="points">
              <mxPoint x="1252.8125" y="72" />
              <mxPoint x="1805.625" y="144" />
            </Array>
          </mxGeometry>
        </mxCell>
        <mxCell id="C0KYWf5MFjcVJt7XxlhM-94" style="edgeStyle=orthogonalEdgeStyle;rounded=0;orthogonalLoop=1;jettySize=auto;html=1;shape=flexArrow;noEdgeStyle=1;orthogonal=1;fillColor=#e1d5e7;strokeColor=#9673a6;" parent="WIyWlLk6GJQsqaUBKTNV-1" source="C0KYWf5MFjcVJt7XxlhM-7" target="C0KYWf5MFjcVJt7XxlhM-3" edge="1">
          <mxGeometry relative="1" as="geometry">
            <Array as="points">
              <mxPoint x="1617.1875" y="72" />
              <mxPoint x="1821.875" y="142" />
            </Array>
          </mxGeometry>
        </mxCell>
        <mxCell id="C0KYWf5MFjcVJt7XxlhM-93" style="edgeStyle=orthogonalEdgeStyle;rounded=0;orthogonalLoop=1;jettySize=auto;html=1;shape=flexArrow;noEdgeStyle=1;orthogonal=1;fillColor=#e1d5e7;strokeColor=#9673a6;" parent="WIyWlLk6GJQsqaUBKTNV-1" source="C0KYWf5MFjcVJt7XxlhM-8" target="C0KYWf5MFjcVJt7XxlhM-3" edge="1">
          <mxGeometry relative="1" as="geometry">
            <Array as="points">
              <mxPoint x="1869.1666666666667" y="76" />
              <mxPoint x="1838.125" y="142" />
            </Array>
          </mxGeometry>
        </mxCell>
        <mxCell id="C0KYWf5MFjcVJt7XxlhM-92" style="edgeStyle=orthogonalEdgeStyle;rounded=0;orthogonalLoop=1;jettySize=auto;html=1;shape=flexArrow;noEdgeStyle=1;orthogonal=1;fillColor=#e1d5e7;strokeColor=#9673a6;" parent="WIyWlLk6GJQsqaUBKTNV-1" source="C0KYWf5MFjcVJt7XxlhM-9" target="C0KYWf5MFjcVJt7XxlhM-3" edge="1">
          <mxGeometry relative="1" as="geometry">
            <Array as="points">
              <mxPoint x="2001.25" y="72" />
              <mxPoint x="1854.375" y="144" />
            </Array>
          </mxGeometry>
        </mxCell>
        <mxCell id="C0KYWf5MFjcVJt7XxlhM-95" style="edgeStyle=orthogonalEdgeStyle;rounded=0;orthogonalLoop=1;jettySize=auto;html=1;shape=flexArrow;noEdgeStyle=1;orthogonal=1;fillColor=#e1d5e7;strokeColor=#9673a6;" parent="WIyWlLk6GJQsqaUBKTNV-1" source="C0KYWf5MFjcVJt7XxlhM-10" target="C0KYWf5MFjcVJt7XxlhM-3" edge="1">
          <mxGeometry relative="1" as="geometry">
            <Array as="points">
              <mxPoint x="2165.8333333333335" y="72" />
              <mxPoint x="1870.625" y="146" />
            </Array>
          </mxGeometry>
        </mxCell>
        <mxCell id="avPxuaekG5Cl0MjWcBpi-0" value="BasicConfiguration" style="rounded=0;whiteSpace=wrap;html=1;fillColor=#fff2cc;container=0;strokeColor=#d6b656;" parent="WIyWlLk6GJQsqaUBKTNV-1" vertex="1">
          <mxGeometry x="1886.875" y="320" width="140" height="60" as="geometry" />
        </mxCell>
        <mxCell id="C0KYWf5MFjcVJt7XxlhM-0" value="SwaggerConfig" style="rounded=0;whiteSpace=wrap;html=1;fillColor=#D4E1F5;container=0;" parent="WIyWlLk6GJQsqaUBKTNV-1" vertex="1">
          <mxGeometry x="3010" y="370" width="140" height="60" as="geometry" />
        </mxCell>
        <mxCell id="C0KYWf5MFjcVJt7XxlhM-38" style="edgeStyle=orthogonalEdgeStyle;rounded=0;orthogonalLoop=1;jettySize=auto;html=1;noEdgeStyle=1;orthogonal=1;fillColor=#fff2cc;strokeColor=#d6b656;" parent="WIyWlLk6GJQsqaUBKTNV-1" source="C0KYWf5MFjcVJt7XxlhM-1" target="avPxuaekG5Cl0MjWcBpi-0" edge="1">
          <mxGeometry relative="1" as="geometry">
            <Array as="points">
              <mxPoint x="830" y="74" />
              <mxPoint x="830" y="110" />
              <mxPoint x="830" y="270" />
              <mxPoint x="1898.375" y="308" />
            </Array>
          </mxGeometry>
        </mxCell>
        <mxCell id="C0KYWf5MFjcVJt7XxlhM-39" style="edgeStyle=orthogonalEdgeStyle;rounded=0;orthogonalLoop=1;jettySize=auto;html=1;noEdgeStyle=1;orthogonal=1;" parent="WIyWlLk6GJQsqaUBKTNV-1" source="C0KYWf5MFjcVJt7XxlhM-1" target="C0KYWf5MFjcVJt7XxlhM-19" edge="1">
          <mxGeometry relative="1" as="geometry">
            <Array as="points">
              <mxPoint x="786.6666666666666" y="72" />
              <mxPoint x="800" y="110" />
              <mxPoint x="800" y="270" />
              <mxPoint x="1270" y="308" />
            </Array>
          </mxGeometry>
        </mxCell>
        <mxCell id="C0KYWf5MFjcVJt7XxlhM-1" value="UtilityController" style="rounded=0;whiteSpace=wrap;html=1;fillColor=#D4E1F5;container=0;" parent="WIyWlLk6GJQsqaUBKTNV-1" vertex="1">
          <mxGeometry x="760" width="140" height="60" as="geometry" />
        </mxCell>
        <mxCell id="C0KYWf5MFjcVJt7XxlhM-40" style="edgeStyle=orthogonalEdgeStyle;rounded=0;orthogonalLoop=1;jettySize=auto;html=1;noEdgeStyle=1;orthogonal=1;fillColor=#fff2cc;strokeColor=#d6b656;" parent="WIyWlLk6GJQsqaUBKTNV-1" source="C0KYWf5MFjcVJt7XxlhM-3" target="avPxuaekG5Cl0MjWcBpi-0" edge="1">
          <mxGeometry relative="1" as="geometry">
            <Array as="points">
              <mxPoint x="1862.5" y="236" />
              <mxPoint x="1950.375" y="300" />
            </Array>
          </mxGeometry>
        </mxCell>
        <mxCell id="C0KYWf5MFjcVJt7XxlhM-41" style="edgeStyle=orthogonalEdgeStyle;rounded=0;orthogonalLoop=1;jettySize=auto;html=1;noEdgeStyle=1;orthogonal=1;" parent="WIyWlLk6GJQsqaUBKTNV-1" source="C0KYWf5MFjcVJt7XxlhM-3" target="C0KYWf5MFjcVJt7XxlhM-19" edge="1">
          <mxGeometry relative="1" as="geometry">
            <Array as="points">
              <mxPoint x="1771.5" y="232" />
              <mxPoint x="1351.25" y="304" />
            </Array>
          </mxGeometry>
        </mxCell>
        <mxCell id="C0KYWf5MFjcVJt7XxlhM-42" style="edgeStyle=orthogonalEdgeStyle;rounded=0;orthogonalLoop=1;jettySize=auto;html=1;noEdgeStyle=1;orthogonal=1;" parent="WIyWlLk6GJQsqaUBKTNV-1" source="C0KYWf5MFjcVJt7XxlhM-3" target="C0KYWf5MFjcVJt7XxlhM-23" edge="1">
          <mxGeometry relative="1" as="geometry">
            <Array as="points">
              <mxPoint x="1875.5" y="234" />
              <mxPoint x="2118.75" y="302" />
            </Array>
          </mxGeometry>
        </mxCell>
        <mxCell id="C0KYWf5MFjcVJt7XxlhM-43" style="edgeStyle=orthogonalEdgeStyle;rounded=0;orthogonalLoop=1;jettySize=auto;html=1;noEdgeStyle=1;orthogonal=1;" parent="WIyWlLk6GJQsqaUBKTNV-1" source="C0KYWf5MFjcVJt7XxlhM-3" target="C0KYWf5MFjcVJt7XxlhM-24" edge="1">
          <mxGeometry relative="1" as="geometry">
            <Array as="points">
              <mxPoint x="1784.5" y="234" />
              <mxPoint x="1496.875" y="308" />
            </Array>
          </mxGeometry>
        </mxCell>
        <mxCell id="C0KYWf5MFjcVJt7XxlhM-44" style="edgeStyle=orthogonalEdgeStyle;rounded=0;orthogonalLoop=1;jettySize=auto;html=1;noEdgeStyle=1;orthogonal=1;" parent="WIyWlLk6GJQsqaUBKTNV-1" source="C0KYWf5MFjcVJt7XxlhM-3" target="C0KYWf5MFjcVJt7XxlhM-31" edge="1">
          <mxGeometry relative="1" as="geometry">
            <Array as="points">
              <mxPoint x="1797.5" y="236" />
              <mxPoint x="1666.875" y="308" />
            </Array>
          </mxGeometry>
        </mxCell>
        <mxCell id="C0KYWf5MFjcVJt7XxlhM-45" style="edgeStyle=orthogonalEdgeStyle;rounded=0;orthogonalLoop=1;jettySize=auto;html=1;noEdgeStyle=1;orthogonal=1;" parent="WIyWlLk6GJQsqaUBKTNV-1" source="C0KYWf5MFjcVJt7XxlhM-3" target="C0KYWf5MFjcVJt7XxlhM-32" edge="1">
          <mxGeometry relative="1" as="geometry">
            <Array as="points">
              <mxPoint x="1810.5" y="238" />
              <mxPoint x="1766.875" y="270" />
              <mxPoint x="1766.875" y="430" />
              <mxPoint x="1370.2083333333333" y="468" />
            </Array>
          </mxGeometry>
        </mxCell>
        <mxCell id="C0KYWf5MFjcVJt7XxlhM-46" style="edgeStyle=orthogonalEdgeStyle;rounded=0;orthogonalLoop=1;jettySize=auto;html=1;noEdgeStyle=1;orthogonal=1;" parent="WIyWlLk6GJQsqaUBKTNV-1" source="C0KYWf5MFjcVJt7XxlhM-3" target="C0KYWf5MFjcVJt7XxlhM-34" edge="1">
          <mxGeometry relative="1" as="geometry">
            <Array as="points">
              <mxPoint x="1823.5" y="240" />
              <mxPoint x="1796.875" y="270" />
              <mxPoint x="1796.875" y="430" />
              <mxPoint x="1540.2083333333333" y="468" />
            </Array>
          </mxGeometry>
        </mxCell>
        <mxCell id="C0KYWf5MFjcVJt7XxlhM-47" style="edgeStyle=orthogonalEdgeStyle;rounded=0;orthogonalLoop=1;jettySize=auto;html=1;noEdgeStyle=1;orthogonal=1;" parent="WIyWlLk6GJQsqaUBKTNV-1" source="C0KYWf5MFjcVJt7XxlhM-3" target="C0KYWf5MFjcVJt7XxlhM-35" edge="1">
          <mxGeometry relative="1" as="geometry">
            <Array as="points">
              <mxPoint x="1836.5" y="240" />
              <mxPoint x="1826.875" y="270" />
              <mxPoint x="1826.875" y="430" />
              <mxPoint x="1683.125" y="466" />
            </Array>
          </mxGeometry>
        </mxCell>
        <mxCell id="C0KYWf5MFjcVJt7XxlhM-48" style="edgeStyle=orthogonalEdgeStyle;rounded=0;orthogonalLoop=1;jettySize=auto;html=1;noEdgeStyle=1;orthogonal=1;" parent="WIyWlLk6GJQsqaUBKTNV-1" source="C0KYWf5MFjcVJt7XxlhM-3" target="C0KYWf5MFjcVJt7XxlhM-36" edge="1">
          <mxGeometry relative="1" as="geometry">
            <Array as="points">
              <mxPoint x="1849.5" y="238" />
              <mxPoint x="1856.875" y="270" />
              <mxPoint x="1856.875" y="430" />
              <mxPoint x="1856.875" y="466" />
            </Array>
          </mxGeometry>
        </mxCell>
        <mxCell id="Qz7dubxmuP8Mt73DrNYx-11" style="edgeStyle=orthogonalEdgeStyle;rounded=0;orthogonalLoop=1;jettySize=auto;html=1;noEdgeStyle=1;orthogonal=1;" edge="1" parent="WIyWlLk6GJQsqaUBKTNV-1" source="C0KYWf5MFjcVJt7XxlhM-3" target="Qz7dubxmuP8Mt73DrNYx-2">
          <mxGeometry relative="1" as="geometry">
            <Array as="points">
              <mxPoint x="1888.5" y="232" />
              <mxPoint x="2302.1875" y="308" />
            </Array>
          </mxGeometry>
        </mxCell>
        <mxCell id="C0KYWf5MFjcVJt7XxlhM-3" value="WydotTimBaseController" style="rounded=0;whiteSpace=wrap;html=1;fillColor=#D4E1F5;container=0;" parent="WIyWlLk6GJQsqaUBKTNV-1" vertex="1">
          <mxGeometry x="1760" y="160" width="140" height="60" as="geometry" />
        </mxCell>
        <mxCell id="C0KYWf5MFjcVJt7XxlhM-49" style="edgeStyle=orthogonalEdgeStyle;rounded=0;orthogonalLoop=1;jettySize=auto;html=1;noEdgeStyle=1;orthogonal=1;fillColor=#fff2cc;strokeColor=#d6b656;" parent="WIyWlLk6GJQsqaUBKTNV-1" source="C0KYWf5MFjcVJt7XxlhM-4" target="avPxuaekG5Cl0MjWcBpi-0" edge="1">
          <mxGeometry relative="1" as="geometry">
            <Array as="points">
              <mxPoint x="989.1666666666666" y="76" />
              <mxPoint x="920" y="110" />
              <mxPoint x="920" y="270" />
              <mxPoint x="1911.375" y="306" />
            </Array>
          </mxGeometry>
        </mxCell>
        <mxCell id="C0KYWf5MFjcVJt7XxlhM-50" style="edgeStyle=orthogonalEdgeStyle;rounded=0;orthogonalLoop=1;jettySize=auto;html=1;noEdgeStyle=1;orthogonal=1;" parent="WIyWlLk6GJQsqaUBKTNV-1" source="C0KYWf5MFjcVJt7XxlhM-4" target="C0KYWf5MFjcVJt7XxlhM-19" edge="1">
          <mxGeometry relative="1" as="geometry">
            <Array as="points">
              <mxPoint x="967.5" y="74" />
              <mxPoint x="890" y="110" />
              <mxPoint x="890" y="270" />
              <mxPoint x="1286.25" y="306" />
            </Array>
          </mxGeometry>
        </mxCell>
        <mxCell id="C0KYWf5MFjcVJt7XxlhM-51" style="edgeStyle=orthogonalEdgeStyle;rounded=0;orthogonalLoop=1;jettySize=auto;html=1;noEdgeStyle=1;orthogonal=1;" parent="WIyWlLk6GJQsqaUBKTNV-1" source="C0KYWf5MFjcVJt7XxlhM-4" target="C0KYWf5MFjcVJt7XxlhM-23" edge="1">
          <mxGeometry relative="1" as="geometry">
            <Array as="points">
              <mxPoint x="1010.8333333333333" y="76" />
              <mxPoint x="950" y="110" />
              <mxPoint x="950" y="270" />
              <mxPoint x="2070" y="308" />
            </Array>
          </mxGeometry>
        </mxCell>
        <mxCell id="C0KYWf5MFjcVJt7XxlhM-52" style="edgeStyle=orthogonalEdgeStyle;rounded=0;orthogonalLoop=1;jettySize=auto;html=1;noEdgeStyle=1;orthogonal=1;" parent="WIyWlLk6GJQsqaUBKTNV-1" source="C0KYWf5MFjcVJt7XxlhM-4" target="C0KYWf5MFjcVJt7XxlhM-28" edge="1">
          <mxGeometry relative="1" as="geometry">
            <Array as="points">
              <mxPoint x="1032.5" y="74" />
              <mxPoint x="1307.5" y="148" />
            </Array>
          </mxGeometry>
        </mxCell>
        <mxCell id="C0KYWf5MFjcVJt7XxlhM-53" style="edgeStyle=orthogonalEdgeStyle;rounded=0;orthogonalLoop=1;jettySize=auto;html=1;noEdgeStyle=1;orthogonal=1;" parent="WIyWlLk6GJQsqaUBKTNV-1" source="C0KYWf5MFjcVJt7XxlhM-4" target="C0KYWf5MFjcVJt7XxlhM-35" edge="1">
          <mxGeometry relative="1" as="geometry">
            <Array as="points">
              <mxPoint x="945.8333333333334" y="72" />
              <mxPoint x="860" y="110" />
              <mxPoint x="860" y="270" />
              <mxPoint x="860" y="270" />
              <mxPoint x="860" y="430" />
              <mxPoint x="1618.125" y="468" />
            </Array>
          </mxGeometry>
        </mxCell>
        <mxCell id="C0KYWf5MFjcVJt7XxlhM-4" value="WydotTimCcController" style="rounded=0;whiteSpace=wrap;html=1;fillColor=#D4E1F5;container=0;" parent="WIyWlLk6GJQsqaUBKTNV-1" vertex="1">
          <mxGeometry x="930" width="140" height="60" as="geometry" />
        </mxCell>
        <mxCell id="C0KYWf5MFjcVJt7XxlhM-54" style="edgeStyle=orthogonalEdgeStyle;rounded=0;orthogonalLoop=1;jettySize=auto;html=1;noEdgeStyle=1;orthogonal=1;fillColor=#fff2cc;strokeColor=#d6b656;" parent="WIyWlLk6GJQsqaUBKTNV-1" source="C0KYWf5MFjcVJt7XxlhM-5" target="avPxuaekG5Cl0MjWcBpi-0" edge="1">
          <mxGeometry relative="1" as="geometry">
            <Array as="points">
              <mxPoint x="1145.3125" y="74" />
              <mxPoint x="1010" y="110" />
              <mxPoint x="1010" y="270" />
              <mxPoint x="1924.375" y="304" />
            </Array>
          </mxGeometry>
        </mxCell>
        <mxCell id="C0KYWf5MFjcVJt7XxlhM-55" style="edgeStyle=orthogonalEdgeStyle;rounded=0;orthogonalLoop=1;jettySize=auto;html=1;noEdgeStyle=1;orthogonal=1;" parent="WIyWlLk6GJQsqaUBKTNV-1" source="C0KYWf5MFjcVJt7XxlhM-5" target="C0KYWf5MFjcVJt7XxlhM-19" edge="1">
          <mxGeometry relative="1" as="geometry">
            <Array as="points">
              <mxPoint x="1118.4375" y="72" />
              <mxPoint x="980" y="110" />
              <mxPoint x="980" y="270" />
              <mxPoint x="1302.5" y="304" />
            </Array>
          </mxGeometry>
        </mxCell>
        <mxCell id="C0KYWf5MFjcVJt7XxlhM-56" style="edgeStyle=orthogonalEdgeStyle;rounded=0;orthogonalLoop=1;jettySize=auto;html=1;noEdgeStyle=1;orthogonal=1;" parent="WIyWlLk6GJQsqaUBKTNV-1" source="C0KYWf5MFjcVJt7XxlhM-5" target="C0KYWf5MFjcVJt7XxlhM-23" edge="1">
          <mxGeometry relative="1" as="geometry">
            <Array as="points">
              <mxPoint x="1172.1875" y="76" />
              <mxPoint x="1040" y="110" />
              <mxPoint x="1040" y="270" />
              <mxPoint x="2086.25" y="306" />
            </Array>
          </mxGeometry>
        </mxCell>
        <mxCell id="C0KYWf5MFjcVJt7XxlhM-57" style="edgeStyle=orthogonalEdgeStyle;rounded=0;orthogonalLoop=1;jettySize=auto;html=1;noEdgeStyle=1;orthogonal=1;" parent="WIyWlLk6GJQsqaUBKTNV-1" source="C0KYWf5MFjcVJt7XxlhM-5" target="C0KYWf5MFjcVJt7XxlhM-26" edge="1">
          <mxGeometry relative="1" as="geometry">
            <Array as="points">
              <mxPoint x="1199.0625" y="76" />
              <mxPoint x="1140" y="148" />
            </Array>
          </mxGeometry>
        </mxCell>
        <mxCell id="C0KYWf5MFjcVJt7XxlhM-5" value="WydotTimIncidentController" style="rounded=0;whiteSpace=wrap;html=1;fillColor=#D4E1F5;container=0;" parent="WIyWlLk6GJQsqaUBKTNV-1" vertex="1">
          <mxGeometry x="1100" width="171.25" height="60" as="geometry" />
        </mxCell>
        <mxCell id="C0KYWf5MFjcVJt7XxlhM-59" style="edgeStyle=orthogonalEdgeStyle;rounded=0;orthogonalLoop=1;jettySize=auto;html=1;noEdgeStyle=1;orthogonal=1;fillColor=#fff2cc;strokeColor=#d6b656;" parent="WIyWlLk6GJQsqaUBKTNV-1" source="C0KYWf5MFjcVJt7XxlhM-7" target="avPxuaekG5Cl0MjWcBpi-0" edge="1">
          <mxGeometry relative="1" as="geometry">
            <Array as="points">
              <mxPoint x="1509.6875" y="74" />
              <mxPoint x="1470" y="110" />
              <mxPoint x="1470" y="270" />
              <mxPoint x="1937.375" y="302" />
            </Array>
          </mxGeometry>
        </mxCell>
        <mxCell id="C0KYWf5MFjcVJt7XxlhM-60" style="edgeStyle=orthogonalEdgeStyle;rounded=0;orthogonalLoop=1;jettySize=auto;html=1;noEdgeStyle=1;orthogonal=1;" parent="WIyWlLk6GJQsqaUBKTNV-1" source="C0KYWf5MFjcVJt7XxlhM-7" target="C0KYWf5MFjcVJt7XxlhM-19" edge="1">
          <mxGeometry relative="1" as="geometry">
            <Array as="points">
              <mxPoint x="1482.8125" y="72" />
              <mxPoint x="1440" y="110" />
              <mxPoint x="1440" y="270" />
              <mxPoint x="1318.75" y="302" />
            </Array>
          </mxGeometry>
        </mxCell>
        <mxCell id="C0KYWf5MFjcVJt7XxlhM-61" style="edgeStyle=orthogonalEdgeStyle;rounded=0;orthogonalLoop=1;jettySize=auto;html=1;noEdgeStyle=1;orthogonal=1;" parent="WIyWlLk6GJQsqaUBKTNV-1" source="C0KYWf5MFjcVJt7XxlhM-7" target="C0KYWf5MFjcVJt7XxlhM-23" edge="1">
          <mxGeometry relative="1" as="geometry">
            <Array as="points">
              <mxPoint x="1536.5625" y="76" />
              <mxPoint x="1500" y="110" />
              <mxPoint x="1500" y="270" />
              <mxPoint x="2102.5" y="304" />
            </Array>
          </mxGeometry>
        </mxCell>
        <mxCell id="C0KYWf5MFjcVJt7XxlhM-62" style="edgeStyle=orthogonalEdgeStyle;rounded=0;orthogonalLoop=1;jettySize=auto;html=1;noEdgeStyle=1;orthogonal=1;" parent="WIyWlLk6GJQsqaUBKTNV-1" source="C0KYWf5MFjcVJt7XxlhM-7" target="C0KYWf5MFjcVJt7XxlhM-27" edge="1">
          <mxGeometry relative="1" as="geometry">
            <Array as="points">
              <mxPoint x="1563.4375" y="76" />
              <mxPoint x="1600" y="148" />
            </Array>
          </mxGeometry>
        </mxCell>
        <mxCell id="C0KYWf5MFjcVJt7XxlhM-63" style="edgeStyle=orthogonalEdgeStyle;rounded=0;orthogonalLoop=1;jettySize=auto;html=1;noEdgeStyle=1;orthogonal=1;" parent="WIyWlLk6GJQsqaUBKTNV-1" source="C0KYWf5MFjcVJt7XxlhM-7" target="C0KYWf5MFjcVJt7XxlhM-34" edge="1">
          <mxGeometry relative="1" as="geometry">
            <Array as="points">
              <mxPoint x="1590.3125" y="74" />
              <mxPoint x="1700" y="110" />
              <mxPoint x="1700" y="270" />
              <mxPoint x="1226.875" y="270" />
              <mxPoint x="1226.875" y="430" />
              <mxPoint x="1453.5416666666667" y="468" />
            </Array>
          </mxGeometry>
        </mxCell>
        <mxCell id="C0KYWf5MFjcVJt7XxlhM-7" value="WydotTimParkingController" style="rounded=0;whiteSpace=wrap;html=1;fillColor=#D4E1F5;container=0;" parent="WIyWlLk6GJQsqaUBKTNV-1" vertex="1">
          <mxGeometry x="1464.375" width="171.25" height="60" as="geometry" />
        </mxCell>
        <mxCell id="C0KYWf5MFjcVJt7XxlhM-64" style="edgeStyle=orthogonalEdgeStyle;rounded=0;orthogonalLoop=1;jettySize=auto;html=1;noEdgeStyle=1;orthogonal=1;fillColor=#fff2cc;strokeColor=#d6b656;" parent="WIyWlLk6GJQsqaUBKTNV-1" source="C0KYWf5MFjcVJt7XxlhM-8" target="avPxuaekG5Cl0MjWcBpi-0" edge="1">
          <mxGeometry relative="1" as="geometry">
            <Array as="points">
              <mxPoint x="1890.8333333333335" y="76" />
              <mxPoint x="1930" y="110" />
              <mxPoint x="1930" y="270" />
              <mxPoint x="1963.375" y="300" />
            </Array>
          </mxGeometry>
        </mxCell>
        <mxCell id="C0KYWf5MFjcVJt7XxlhM-65" style="edgeStyle=orthogonalEdgeStyle;rounded=0;orthogonalLoop=1;jettySize=auto;html=1;noEdgeStyle=1;orthogonal=1;" parent="WIyWlLk6GJQsqaUBKTNV-1" source="C0KYWf5MFjcVJt7XxlhM-8" target="C0KYWf5MFjcVJt7XxlhM-19" edge="1">
          <mxGeometry relative="1" as="geometry">
            <Array as="points">
              <mxPoint x="1847.5" y="74" />
              <mxPoint x="1730" y="110" />
              <mxPoint x="1730" y="270" />
              <mxPoint x="1335" y="302" />
            </Array>
          </mxGeometry>
        </mxCell>
        <mxCell id="C0KYWf5MFjcVJt7XxlhM-66" style="edgeStyle=orthogonalEdgeStyle;rounded=0;orthogonalLoop=1;jettySize=auto;html=1;noEdgeStyle=1;orthogonal=1;" parent="WIyWlLk6GJQsqaUBKTNV-1" source="C0KYWf5MFjcVJt7XxlhM-8" target="C0KYWf5MFjcVJt7XxlhM-23" edge="1">
          <mxGeometry relative="1" as="geometry">
            <Array as="points">
              <mxPoint x="1912.5000000000002" y="74" />
              <mxPoint x="1960" y="110" />
              <mxPoint x="1960" y="270" />
              <mxPoint x="2135" y="302" />
            </Array>
          </mxGeometry>
        </mxCell>
        <mxCell id="C0KYWf5MFjcVJt7XxlhM-67" style="edgeStyle=orthogonalEdgeStyle;rounded=0;orthogonalLoop=1;jettySize=auto;html=1;noEdgeStyle=1;orthogonal=1;" parent="WIyWlLk6GJQsqaUBKTNV-1" source="C0KYWf5MFjcVJt7XxlhM-8" target="C0KYWf5MFjcVJt7XxlhM-28" edge="1">
          <mxGeometry relative="1" as="geometry">
            <Array as="points">
              <mxPoint x="1825.8333333333333" y="72" />
              <mxPoint x="1372.5" y="148" />
            </Array>
          </mxGeometry>
        </mxCell>
        <mxCell id="C0KYWf5MFjcVJt7XxlhM-68" style="edgeStyle=orthogonalEdgeStyle;rounded=0;orthogonalLoop=1;jettySize=auto;html=1;noEdgeStyle=1;orthogonal=1;" parent="WIyWlLk6GJQsqaUBKTNV-1" source="C0KYWf5MFjcVJt7XxlhM-8" target="C0KYWf5MFjcVJt7XxlhM-35" edge="1">
          <mxGeometry relative="1" as="geometry">
            <Array as="points">
              <mxPoint x="1934.166666666667" y="72" />
              <mxPoint x="1990" y="110" />
              <mxPoint x="1990" y="270" />
              <mxPoint x="2226.875" y="270" />
              <mxPoint x="2226.875" y="430" />
              <mxPoint x="1715.625" y="468" />
            </Array>
          </mxGeometry>
        </mxCell>
        <mxCell id="C0KYWf5MFjcVJt7XxlhM-8" value="WydotTimRcController" style="rounded=0;whiteSpace=wrap;html=1;fillColor=#D4E1F5;container=0;" parent="WIyWlLk6GJQsqaUBKTNV-1" vertex="1">
          <mxGeometry x="1810" width="140" height="60" as="geometry" />
        </mxCell>
        <mxCell id="C0KYWf5MFjcVJt7XxlhM-69" style="edgeStyle=orthogonalEdgeStyle;rounded=0;orthogonalLoop=1;jettySize=auto;html=1;noEdgeStyle=1;orthogonal=1;fillColor=#fff2cc;strokeColor=#d6b656;" parent="WIyWlLk6GJQsqaUBKTNV-1" source="C0KYWf5MFjcVJt7XxlhM-9" target="avPxuaekG5Cl0MjWcBpi-0" edge="1">
          <mxGeometry relative="1" as="geometry">
            <Array as="points">
              <mxPoint x="2066.25" y="74" />
              <mxPoint x="2050" y="110" />
              <mxPoint x="2050" y="270" />
              <mxPoint x="1976.375" y="302" />
            </Array>
          </mxGeometry>
        </mxCell>
        <mxCell id="C0KYWf5MFjcVJt7XxlhM-70" style="edgeStyle=orthogonalEdgeStyle;rounded=0;orthogonalLoop=1;jettySize=auto;html=1;noEdgeStyle=1;orthogonal=1;" parent="WIyWlLk6GJQsqaUBKTNV-1" source="C0KYWf5MFjcVJt7XxlhM-9" target="C0KYWf5MFjcVJt7XxlhM-19" edge="1">
          <mxGeometry relative="1" as="geometry">
            <Array as="points">
              <mxPoint x="2033.75" y="74" />
              <mxPoint x="2020" y="110" />
              <mxPoint x="2020" y="270" />
              <mxPoint x="1367.5" y="306" />
            </Array>
          </mxGeometry>
        </mxCell>
        <mxCell id="C0KYWf5MFjcVJt7XxlhM-71" style="edgeStyle=orthogonalEdgeStyle;rounded=0;orthogonalLoop=1;jettySize=auto;html=1;noEdgeStyle=1;orthogonal=1;" parent="WIyWlLk6GJQsqaUBKTNV-1" source="C0KYWf5MFjcVJt7XxlhM-9" target="C0KYWf5MFjcVJt7XxlhM-23" edge="1">
          <mxGeometry relative="1" as="geometry">
            <Array as="points">
              <mxPoint x="2098.75" y="72" />
              <mxPoint x="2080" y="110" />
              <mxPoint x="2080" y="270" />
              <mxPoint x="2151.25" y="304" />
            </Array>
          </mxGeometry>
        </mxCell>
        <mxCell id="C0KYWf5MFjcVJt7XxlhM-9" value="WydotTimRwController" style="rounded=0;whiteSpace=wrap;html=1;fillColor=#D4E1F5;container=0;" parent="WIyWlLk6GJQsqaUBKTNV-1" vertex="1">
          <mxGeometry x="1980" width="140" height="60" as="geometry" />
        </mxCell>
        <mxCell id="C0KYWf5MFjcVJt7XxlhM-72" style="edgeStyle=orthogonalEdgeStyle;rounded=0;orthogonalLoop=1;jettySize=auto;html=1;noEdgeStyle=1;orthogonal=1;fillColor=#fff2cc;strokeColor=#d6b656;" parent="WIyWlLk6GJQsqaUBKTNV-1" source="C0KYWf5MFjcVJt7XxlhM-10" target="avPxuaekG5Cl0MjWcBpi-0" edge="1">
          <mxGeometry relative="1" as="geometry">
            <Array as="points">
              <mxPoint x="2209.1666666666665" y="76" />
              <mxPoint x="2140" y="110" />
              <mxPoint x="2140" y="270" />
              <mxPoint x="1989.375" y="304" />
            </Array>
          </mxGeometry>
        </mxCell>
        <mxCell id="C0KYWf5MFjcVJt7XxlhM-73" style="edgeStyle=orthogonalEdgeStyle;rounded=0;orthogonalLoop=1;jettySize=auto;html=1;noEdgeStyle=1;orthogonal=1;" parent="WIyWlLk6GJQsqaUBKTNV-1" source="C0KYWf5MFjcVJt7XxlhM-10" target="C0KYWf5MFjcVJt7XxlhM-19" edge="1">
          <mxGeometry relative="1" as="geometry">
            <Array as="points">
              <mxPoint x="2187.5" y="74" />
              <mxPoint x="2110" y="110" />
              <mxPoint x="2110" y="270" />
              <mxPoint x="1383.75" y="308" />
            </Array>
          </mxGeometry>
        </mxCell>
        <mxCell id="C0KYWf5MFjcVJt7XxlhM-74" style="edgeStyle=orthogonalEdgeStyle;rounded=0;orthogonalLoop=1;jettySize=auto;html=1;noEdgeStyle=1;orthogonal=1;" parent="WIyWlLk6GJQsqaUBKTNV-1" source="C0KYWf5MFjcVJt7XxlhM-10" target="C0KYWf5MFjcVJt7XxlhM-23" edge="1">
          <mxGeometry relative="1" as="geometry">
            <Array as="points">
              <mxPoint x="2230.833333333333" y="76" />
              <mxPoint x="2170" y="110" />
              <mxPoint x="2170" y="270" />
              <mxPoint x="2167.5" y="306" />
            </Array>
          </mxGeometry>
        </mxCell>
        <mxCell id="C0KYWf5MFjcVJt7XxlhM-75" style="edgeStyle=orthogonalEdgeStyle;rounded=0;orthogonalLoop=1;jettySize=auto;html=1;noEdgeStyle=1;orthogonal=1;" parent="WIyWlLk6GJQsqaUBKTNV-1" source="C0KYWf5MFjcVJt7XxlhM-10" target="C0KYWf5MFjcVJt7XxlhM-29" edge="1">
          <mxGeometry relative="1" as="geometry">
            <Array as="points">
              <mxPoint x="2252.4999999999995" y="74" />
              <mxPoint x="2270" y="148" />
            </Array>
          </mxGeometry>
        </mxCell>
        <mxCell id="C0KYWf5MFjcVJt7XxlhM-76" style="edgeStyle=orthogonalEdgeStyle;rounded=0;orthogonalLoop=1;jettySize=auto;html=1;noEdgeStyle=1;orthogonal=1;" parent="WIyWlLk6GJQsqaUBKTNV-1" source="C0KYWf5MFjcVJt7XxlhM-10" target="C0KYWf5MFjcVJt7XxlhM-36" edge="1">
          <mxGeometry relative="1" as="geometry">
            <Array as="points">
              <mxPoint x="2274.166666666666" y="72" />
              <mxPoint x="2370" y="110" />
              <mxPoint x="2370" y="270" />
              <mxPoint x="2458.125" y="270" />
              <mxPoint x="2458.125" y="430" />
              <mxPoint x="1900.2083333333333" y="468" />
            </Array>
          </mxGeometry>
        </mxCell>
        <mxCell id="C0KYWf5MFjcVJt7XxlhM-10" value="WydotTimVslController" style="rounded=0;whiteSpace=wrap;html=1;fillColor=#D4E1F5;container=0;" parent="WIyWlLk6GJQsqaUBKTNV-1" vertex="1">
          <mxGeometry x="2150" width="140" height="60" as="geometry" />
        </mxCell>
        <mxCell id="C0KYWf5MFjcVJt7XxlhM-77" style="edgeStyle=orthogonalEdgeStyle;rounded=0;orthogonalLoop=1;jettySize=auto;html=1;noEdgeStyle=1;orthogonal=1;" parent="WIyWlLk6GJQsqaUBKTNV-1" source="C0KYWf5MFjcVJt7XxlhM-11" target="C0KYWf5MFjcVJt7XxlhM-20" edge="1">
          <mxGeometry relative="1" as="geometry">
            <Array as="points">
              <mxPoint x="2525.625" y="232" />
              <mxPoint x="2529.375" y="308" />
            </Array>
          </mxGeometry>
        </mxCell>
        <mxCell id="C0KYWf5MFjcVJt7XxlhM-11" value="BufferedRequestWrapperFactory" style="rounded=0;whiteSpace=wrap;html=1;fillColor=#D4E1F5;container=0;" parent="WIyWlLk6GJQsqaUBKTNV-1" vertex="1">
          <mxGeometry x="2430" y="160" width="191.25" height="60" as="geometry" />
        </mxCell>
        <mxCell id="C0KYWf5MFjcVJt7XxlhM-78" style="edgeStyle=orthogonalEdgeStyle;rounded=0;orthogonalLoop=1;jettySize=auto;html=1;noEdgeStyle=1;orthogonal=1;" parent="WIyWlLk6GJQsqaUBKTNV-1" source="C0KYWf5MFjcVJt7XxlhM-12" target="C0KYWf5MFjcVJt7XxlhM-21" edge="1">
          <mxGeometry relative="1" as="geometry">
            <Array as="points">
              <mxPoint x="2782.5" y="232" />
              <mxPoint x="2808.2330246913584" y="308" />
            </Array>
          </mxGeometry>
        </mxCell>
        <mxCell id="C0KYWf5MFjcVJt7XxlhM-12" value="BufferedResponseWrapperFactory" style="rounded=0;whiteSpace=wrap;html=1;fillColor=#D4E1F5;container=0;" parent="WIyWlLk6GJQsqaUBKTNV-1" vertex="1">
          <mxGeometry x="2681.25" y="160" width="202.5" height="60" as="geometry" />
        </mxCell>
        <mxCell id="C0KYWf5MFjcVJt7XxlhM-79" style="edgeStyle=orthogonalEdgeStyle;rounded=0;orthogonalLoop=1;jettySize=auto;html=1;noEdgeStyle=1;orthogonal=1;fillColor=#fff2cc;strokeColor=#d6b656;" parent="WIyWlLk6GJQsqaUBKTNV-1" source="C0KYWf5MFjcVJt7XxlhM-18" target="avPxuaekG5Cl0MjWcBpi-0" edge="1">
          <mxGeometry relative="1" as="geometry">
            <Array as="points">
              <mxPoint x="2476.125" y="72" />
              <mxPoint x="2400" y="110" />
              <mxPoint x="2400" y="270" />
              <mxPoint x="2002.375" y="306" />
            </Array>
          </mxGeometry>
        </mxCell>
        <mxCell id="C0KYWf5MFjcVJt7XxlhM-80" style="edgeStyle=orthogonalEdgeStyle;rounded=0;orthogonalLoop=1;jettySize=auto;html=1;noEdgeStyle=1;orthogonal=1;" parent="WIyWlLk6GJQsqaUBKTNV-1" source="C0KYWf5MFjcVJt7XxlhM-18" target="C0KYWf5MFjcVJt7XxlhM-20" edge="1">
          <mxGeometry relative="1" as="geometry">
            <Array as="points">
              <mxPoint x="2528.125" y="76" />
              <mxPoint x="2651.25" y="110" />
              <mxPoint x="2651.25" y="270" />
              <mxPoint x="2601.875" y="308" />
            </Array>
          </mxGeometry>
        </mxCell>
        <mxCell id="C0KYWf5MFjcVJt7XxlhM-81" style="edgeStyle=orthogonalEdgeStyle;rounded=0;orthogonalLoop=1;jettySize=auto;html=1;noEdgeStyle=1;orthogonal=1;" parent="WIyWlLk6GJQsqaUBKTNV-1" source="C0KYWf5MFjcVJt7XxlhM-18" target="C0KYWf5MFjcVJt7XxlhM-21" edge="1">
          <mxGeometry relative="1" as="geometry">
            <Array as="points">
              <mxPoint x="2580.125" y="72" />
              <mxPoint x="2913.75" y="110" />
              <mxPoint x="2913.75" y="270" />
              <mxPoint x="2885.7330246913584" y="308" />
            </Array>
          </mxGeometry>
        </mxCell>
        <mxCell id="C0KYWf5MFjcVJt7XxlhM-98" style="edgeStyle=orthogonalEdgeStyle;rounded=0;orthogonalLoop=1;jettySize=auto;html=1;noEdgeStyle=1;orthogonal=1;" parent="WIyWlLk6GJQsqaUBKTNV-1" source="C0KYWf5MFjcVJt7XxlhM-18" target="C0KYWf5MFjcVJt7XxlhM-11" edge="1">
          <mxGeometry relative="1" as="geometry">
            <Array as="points">
              <mxPoint x="2502.125" y="74" />
              <mxPoint x="2525.625" y="148" />
            </Array>
          </mxGeometry>
        </mxCell>
        <mxCell id="C0KYWf5MFjcVJt7XxlhM-99" style="edgeStyle=orthogonalEdgeStyle;rounded=0;orthogonalLoop=1;jettySize=auto;html=1;noEdgeStyle=1;orthogonal=1;" parent="WIyWlLk6GJQsqaUBKTNV-1" source="C0KYWf5MFjcVJt7XxlhM-18" target="C0KYWf5MFjcVJt7XxlhM-12" edge="1">
          <mxGeometry relative="1" as="geometry">
            <Array as="points">
              <mxPoint x="2554.125" y="74" />
              <mxPoint x="2782.5" y="148" />
            </Array>
          </mxGeometry>
        </mxCell>
        <mxCell id="C0KYWf5MFjcVJt7XxlhM-18" value="HttpLoggingFilter" style="rounded=0;whiteSpace=wrap;html=1;fillColor=#D4E1F5;container=0;" parent="WIyWlLk6GJQsqaUBKTNV-1" vertex="1">
          <mxGeometry x="2458.125" width="140" height="60" as="geometry" />
        </mxCell>
        <mxCell id="C0KYWf5MFjcVJt7XxlhM-82" style="edgeStyle=orthogonalEdgeStyle;rounded=0;orthogonalLoop=1;jettySize=auto;html=1;noEdgeStyle=1;orthogonal=1;" parent="WIyWlLk6GJQsqaUBKTNV-1" source="C0KYWf5MFjcVJt7XxlhM-19" target="C0KYWf5MFjcVJt7XxlhM-32" edge="1">
          <mxGeometry relative="1" as="geometry">
            <Array as="points">
              <mxPoint x="1278.125" y="392" />
              <mxPoint x="1326.875" y="466" />
            </Array>
          </mxGeometry>
        </mxCell>
        <mxCell id="C0KYWf5MFjcVJt7XxlhM-83" style="edgeStyle=orthogonalEdgeStyle;rounded=0;orthogonalLoop=1;jettySize=auto;html=1;noEdgeStyle=1;orthogonal=1;" parent="WIyWlLk6GJQsqaUBKTNV-1" source="C0KYWf5MFjcVJt7XxlhM-19" target="C0KYWf5MFjcVJt7XxlhM-34" edge="1">
          <mxGeometry relative="1" as="geometry">
            <Array as="points">
              <mxPoint x="1310.625" y="394" />
              <mxPoint x="1496.875" y="466" />
            </Array>
          </mxGeometry>
        </mxCell>
        <mxCell id="C0KYWf5MFjcVJt7XxlhM-84" style="edgeStyle=orthogonalEdgeStyle;rounded=0;orthogonalLoop=1;jettySize=auto;html=1;noEdgeStyle=1;orthogonal=1;" parent="WIyWlLk6GJQsqaUBKTNV-1" source="C0KYWf5MFjcVJt7XxlhM-19" target="C0KYWf5MFjcVJt7XxlhM-35" edge="1">
          <mxGeometry relative="1" as="geometry">
            <Array as="points">
              <mxPoint x="1343.125" y="394" />
              <mxPoint x="1650.625" y="466" />
            </Array>
          </mxGeometry>
        </mxCell>
        <mxCell id="C0KYWf5MFjcVJt7XxlhM-85" style="edgeStyle=orthogonalEdgeStyle;rounded=0;orthogonalLoop=1;jettySize=auto;html=1;noEdgeStyle=1;orthogonal=1;" parent="WIyWlLk6GJQsqaUBKTNV-1" source="C0KYWf5MFjcVJt7XxlhM-19" target="C0KYWf5MFjcVJt7XxlhM-36" edge="1">
          <mxGeometry relative="1" as="geometry">
            <Array as="points">
              <mxPoint x="1375.625" y="392" />
              <mxPoint x="1813.5416666666667" y="468" />
            </Array>
          </mxGeometry>
        </mxCell>
        <mxCell id="C0KYWf5MFjcVJt7XxlhM-19" value="SetItisCodes" style="rounded=0;whiteSpace=wrap;html=1;fillColor=#D4E1F5;container=0;" parent="WIyWlLk6GJQsqaUBKTNV-1" vertex="1">
          <mxGeometry x="1256.875" y="320" width="140" height="60" as="geometry" />
        </mxCell>
        <mxCell id="C0KYWf5MFjcVJt7XxlhM-86" style="edgeStyle=orthogonalEdgeStyle;rounded=0;orthogonalLoop=1;jettySize=auto;html=1;noEdgeStyle=1;orthogonal=1;" parent="WIyWlLk6GJQsqaUBKTNV-1" source="C0KYWf5MFjcVJt7XxlhM-20" target="C0KYWf5MFjcVJt7XxlhM-22" edge="1">
          <mxGeometry relative="1" as="geometry">
            <Array as="points">
              <mxPoint x="2565.625" y="392" />
              <mxPoint x="2257.5" y="468" />
            </Array>
          </mxGeometry>
        </mxCell>
        <mxCell id="C0KYWf5MFjcVJt7XxlhM-20" value="BufferedRequestWrapper" style="rounded=0;whiteSpace=wrap;html=1;fillColor=#D4E1F5;container=0;" parent="WIyWlLk6GJQsqaUBKTNV-1" vertex="1">
          <mxGeometry x="2488.125" y="320" width="155" height="60" as="geometry" />
        </mxCell>
        <mxCell id="C0KYWf5MFjcVJt7XxlhM-87" style="edgeStyle=orthogonalEdgeStyle;rounded=0;orthogonalLoop=1;jettySize=auto;html=1;noEdgeStyle=1;orthogonal=1;" parent="WIyWlLk6GJQsqaUBKTNV-1" source="C0KYWf5MFjcVJt7XxlhM-21" target="C0KYWf5MFjcVJt7XxlhM-25" edge="1">
          <mxGeometry relative="1" as="geometry">
            <Array as="points">
              <mxPoint x="2846.9830246913584" y="392" />
              <mxPoint x="2846.9830246913584" y="468" />
            </Array>
          </mxGeometry>
        </mxCell>
        <mxCell id="C0KYWf5MFjcVJt7XxlhM-21" value="BufferedResponseWrapper" style="rounded=0;whiteSpace=wrap;html=1;fillColor=#D4E1F5;container=0;" parent="WIyWlLk6GJQsqaUBKTNV-1" vertex="1">
          <mxGeometry x="2764.4830246913584" y="320" width="165" height="60" as="geometry" />
        </mxCell>
        <mxCell id="C0KYWf5MFjcVJt7XxlhM-22" value="BufferedServletInputStream" style="rounded=0;whiteSpace=wrap;html=1;fillColor=#D4E1F5;container=0;" parent="WIyWlLk6GJQsqaUBKTNV-1" vertex="1">
          <mxGeometry x="2173.435" y="480" width="168.13" height="60" as="geometry" />
        </mxCell>
        <mxCell id="C0KYWf5MFjcVJt7XxlhM-23" value="ControllerResult" style="rounded=0;whiteSpace=wrap;html=1;fillColor=#D4E1F5;container=0;" parent="WIyWlLk6GJQsqaUBKTNV-1" vertex="1">
          <mxGeometry x="2056.875" y="320" width="140" height="60" as="geometry" />
        </mxCell>
        <mxCell id="C0KYWf5MFjcVJt7XxlhM-24" value="IdGenerator&lt;span style=&quot;color: rgba(0, 0, 0, 0); font-family: monospace; font-size: 0px; text-align: start; text-wrap: nowrap;&quot;&gt;%3CmxGraphModel%3E%3Croot%3E%3CmxCell%20id%3D%220%22%2F%3E%3CmxCell%20id%3D%221%22%20parent%3D%220%22%2F%3E%3CmxCell%20id%3D%222%22%20value%3D%22ControllerResult%22%20style%3D%22rounded%3D0%3BwhiteSpace%3Dwrap%3Bhtml%3D1%3BfillColor%3D%23D4E1F5%3Bcontainer%3D0%3B%22%20vertex%3D%221%22%20parent%3D%221%22%3E%3CmxGeometry%20x%3D%22400%22%20y%3D%22680%22%20width%3D%22140%22%20height%3D%2260%22%20as%3D%22geometry%22%2F%3E%3C%2FmxCell%3E%3C%2Froot%3E%3C%2FmxGraphModel%3E&lt;/span&gt;" style="rounded=0;whiteSpace=wrap;html=1;fillColor=#D4E1F5;container=0;" parent="WIyWlLk6GJQsqaUBKTNV-1" vertex="1">
          <mxGeometry x="1426.875" y="320" width="140" height="60" as="geometry" />
        </mxCell>
        <mxCell id="C0KYWf5MFjcVJt7XxlhM-25" value="TeeServletOutputStream" style="rounded=0;whiteSpace=wrap;html=1;fillColor=#D4E1F5;container=0;" parent="WIyWlLk6GJQsqaUBKTNV-1" vertex="1">
          <mxGeometry x="2776.9830246913584" y="480" width="140" height="60" as="geometry" />
        </mxCell>
        <mxCell id="C0KYWf5MFjcVJt7XxlhM-26" value="TimIncidentList" style="rounded=0;whiteSpace=wrap;html=1;fillColor=#D4E1F5;container=0;" parent="WIyWlLk6GJQsqaUBKTNV-1" vertex="1">
          <mxGeometry x="1070" y="160" width="140" height="60" as="geometry" />
        </mxCell>
        <mxCell id="C0KYWf5MFjcVJt7XxlhM-27" value="TimParkingList" style="rounded=0;whiteSpace=wrap;html=1;fillColor=#D4E1F5;container=0;" parent="WIyWlLk6GJQsqaUBKTNV-1" vertex="1">
          <mxGeometry x="1530" y="160" width="140" height="60" as="geometry" />
        </mxCell>
        <mxCell id="C0KYWf5MFjcVJt7XxlhM-28" value="TimRcList" style="rounded=0;whiteSpace=wrap;html=1;fillColor=#D4E1F5;container=0;" parent="WIyWlLk6GJQsqaUBKTNV-1" vertex="1">
          <mxGeometry x="1270" y="160" width="140" height="60" as="geometry" />
        </mxCell>
        <mxCell id="C0KYWf5MFjcVJt7XxlhM-29" value="TimVslList" style="rounded=0;whiteSpace=wrap;html=1;fillColor=#D4E1F5;container=0;" parent="WIyWlLk6GJQsqaUBKTNV-1" vertex="1">
          <mxGeometry x="2200" y="160" width="140" height="60" as="geometry" />
        </mxCell>
        <mxCell id="C0KYWf5MFjcVJt7XxlhM-30" value="WydotDataFrame" style="rounded=0;whiteSpace=wrap;html=1;fillColor=#D4E1F5;container=0;" parent="WIyWlLk6GJQsqaUBKTNV-1" vertex="1">
          <mxGeometry x="3010" y="510" width="140" height="60" as="geometry" />
        </mxCell>
        <mxCell id="C0KYWf5MFjcVJt7XxlhM-31" value="WydotTimCc" style="rounded=0;whiteSpace=wrap;html=1;fillColor=#D4E1F5;container=0;" parent="WIyWlLk6GJQsqaUBKTNV-1" vertex="1">
          <mxGeometry x="1596.875" y="320" width="140" height="60" as="geometry" />
        </mxCell>
        <mxCell id="C0KYWf5MFjcVJt7XxlhM-32" value="WydotTimIncident" style="rounded=0;whiteSpace=wrap;html=1;fillColor=#D4E1F5;container=0;" parent="WIyWlLk6GJQsqaUBKTNV-1" vertex="1">
          <mxGeometry x="1256.875" y="480" width="140" height="60" as="geometry" />
        </mxCell>
        <mxCell id="C0KYWf5MFjcVJt7XxlhM-33" value="WydotTimList" style="rounded=0;whiteSpace=wrap;html=1;fillColor=#D4E1F5;container=0;" parent="WIyWlLk6GJQsqaUBKTNV-1" vertex="1">
          <mxGeometry x="3010" y="300" width="140" height="60" as="geometry" />
        </mxCell>
        <mxCell id="C0KYWf5MFjcVJt7XxlhM-34" value="WydotTimParking" style="rounded=0;whiteSpace=wrap;html=1;fillColor=#D4E1F5;container=0;" parent="WIyWlLk6GJQsqaUBKTNV-1" vertex="1">
          <mxGeometry x="1426.875" y="480" width="140" height="60" as="geometry" />
        </mxCell>
        <mxCell id="C0KYWf5MFjcVJt7XxlhM-35" value="WydotTimRc" style="rounded=0;whiteSpace=wrap;html=1;fillColor=#D4E1F5;container=0;" parent="WIyWlLk6GJQsqaUBKTNV-1" vertex="1">
          <mxGeometry x="1596.875" y="480" width="140" height="60" as="geometry" />
        </mxCell>
        <mxCell id="C0KYWf5MFjcVJt7XxlhM-36" value="WydotTimVsl" style="rounded=0;whiteSpace=wrap;html=1;fillColor=#D4E1F5;container=0;" parent="WIyWlLk6GJQsqaUBKTNV-1" vertex="1">
          <mxGeometry x="1786.875" y="480" width="140" height="60" as="geometry" />
        </mxCell>
        <mxCell id="C0KYWf5MFjcVJt7XxlhM-37" value="ApplicationConfig" style="rounded=0;whiteSpace=wrap;html=1;fillColor=#D4E1F5;container=0;" parent="WIyWlLk6GJQsqaUBKTNV-1" vertex="1">
          <mxGeometry x="3010" y="440" width="140" height="60" as="geometry" />
        </mxCell>
        <mxCell id="C0KYWf5MFjcVJt7XxlhM-58" style="edgeStyle=orthogonalEdgeStyle;rounded=0;orthogonalLoop=1;jettySize=auto;html=1;noEdgeStyle=1;orthogonal=1;" parent="WIyWlLk6GJQsqaUBKTNV-1" source="C0KYWf5MFjcVJt7XxlhM-5" target="C0KYWf5MFjcVJt7XxlhM-32" edge="1">
          <mxGeometry relative="1" as="geometry">
            <Array as="points">
              <mxPoint x="1225.9375" y="74" />
              <mxPoint x="1240" y="110" />
              <mxPoint x="1240" y="270" />
              <mxPoint x="1196.875" y="270" />
              <mxPoint x="1196.875" y="430" />
              <mxPoint x="1283.5416666666667" y="468" />
            </Array>
          </mxGeometry>
        </mxCell>
        <mxCell id="Qz7dubxmuP8Mt73DrNYx-4" style="edgeStyle=orthogonalEdgeStyle;rounded=0;orthogonalLoop=1;jettySize=auto;html=1;noEdgeStyle=1;orthogonal=1;" edge="1" parent="WIyWlLk6GJQsqaUBKTNV-1" source="Qz7dubxmuP8Mt73DrNYx-0" target="Qz7dubxmuP8Mt73DrNYx-2">
          <mxGeometry relative="1" as="geometry">
            <Array as="points">
              <mxPoint x="3027.125" y="74" />
              <mxPoint x="2943.75" y="110" />
              <mxPoint x="2943.75" y="270" />
              <mxPoint x="2382.8125" y="308" />
            </Array>
          </mxGeometry>
        </mxCell>
        <mxCell id="Qz7dubxmuP8Mt73DrNYx-5" style="edgeStyle=orthogonalEdgeStyle;rounded=0;orthogonalLoop=1;jettySize=auto;html=1;noEdgeStyle=1;orthogonal=1;" edge="1" parent="WIyWlLk6GJQsqaUBKTNV-1" source="Qz7dubxmuP8Mt73DrNYx-0" target="Qz7dubxmuP8Mt73DrNYx-1">
          <mxGeometry relative="1" as="geometry">
            <Array as="points">
              <mxPoint x="3059.375" y="76" />
              <mxPoint x="3059.375" y="148" />
            </Array>
          </mxGeometry>
        </mxCell>
        <mxCell id="Qz7dubxmuP8Mt73DrNYx-8" style="edgeStyle=orthogonalEdgeStyle;rounded=0;orthogonalLoop=1;jettySize=auto;html=1;noEdgeStyle=1;orthogonal=1;" edge="1" parent="WIyWlLk6GJQsqaUBKTNV-1" source="Qz7dubxmuP8Mt73DrNYx-0" target="C0KYWf5MFjcVJt7XxlhM-23">
          <mxGeometry relative="1" as="geometry">
            <Array as="points">
              <mxPoint x="3123.875" y="72" />
              <mxPoint x="3205" y="110" />
              <mxPoint x="3205" y="270" />
              <mxPoint x="2183.75" y="308" />
            </Array>
          </mxGeometry>
        </mxCell>
        <mxCell id="Qz7dubxmuP8Mt73DrNYx-9" style="edgeStyle=orthogonalEdgeStyle;rounded=0;orthogonalLoop=1;jettySize=auto;html=1;noEdgeStyle=1;orthogonal=1;strokeColor=#FFE599;" edge="1" parent="WIyWlLk6GJQsqaUBKTNV-1" source="Qz7dubxmuP8Mt73DrNYx-0" target="avPxuaekG5Cl0MjWcBpi-0">
          <mxGeometry relative="1" as="geometry">
            <Array as="points">
              <mxPoint x="3091.625" y="74" />
              <mxPoint x="3175" y="110" />
              <mxPoint x="3175" y="270" />
              <mxPoint x="2015.375" y="308" />
            </Array>
          </mxGeometry>
        </mxCell>
        <mxCell id="Qz7dubxmuP8Mt73DrNYx-0" value="WydotTimBowrController" style="rounded=0;whiteSpace=wrap;html=1;fillColor=#D4E1F5;container=0;" vertex="1" parent="WIyWlLk6GJQsqaUBKTNV-1">
          <mxGeometry x="2973.75" width="171.25" height="60" as="geometry" />
        </mxCell>
        <mxCell id="Qz7dubxmuP8Mt73DrNYx-1" value="TimBowrList" style="rounded=0;whiteSpace=wrap;html=1;fillColor=#D4E1F5;container=0;" vertex="1" parent="WIyWlLk6GJQsqaUBKTNV-1">
          <mxGeometry x="2973.75" y="160" width="171.25" height="60" as="geometry" />
        </mxCell>
        <mxCell id="Qz7dubxmuP8Mt73DrNYx-2" value="WydotTimBowr" style="rounded=0;whiteSpace=wrap;html=1;fillColor=#D4E1F5;container=0;" vertex="1" parent="WIyWlLk6GJQsqaUBKTNV-1">
          <mxGeometry x="2256.875" y="320" width="171.25" height="60" as="geometry" />
        </mxCell>
      </root>
    </mxGraphModel>
  </diagram>
</mxfile>
